<svg width="380" height="540" viewBox="0 0 380 540" xmlns="http://www.w3.org/2000/svg" style="font-family: 'Noto Sans CJK KR', sans-serif; background: #fff;">
<defs>
<marker id="arrow" viewBox="0 0 10 10" refX="8" refY="5" markerWidth="6" markerHeight="6" orient="auto-start-reverse"><path d="M2 1L8 5L2 9" fill="none" stroke="context-stroke" stroke-width="1.5" stroke-linecap="round" stroke-linejoin="round"/></marker>
</defs>

<!-- Q0 -->
<rect x="16" y="12" width="348" height="108" rx="4" fill="none" stroke="#333" stroke-width="0.7"/>
<text x="32" y="38" font-size="14" font-weight="500" fill="#333">Q0  통합 질의</text>
<text x="348" y="38" font-size="13" fill="#333" text-anchor="end">✕</text>
<line x1="32" y1="50" x2="348" y2="50" stroke="#ccc" stroke-width="0.5"/>
<text x="32" y="74" font-size="12.5" fill="#555">"건축가능영역에 영향을 미치는</text>
<text x="32" y="92" font-size="12.5" fill="#555">법적 규제를 모두 검색하라"</text>
<text x="32" y="112" font-size="11" fill="#999">→ 핵심 규제 미도출</text>

<!-- Arrow -->
<line x1="190" y1="120" x2="190" y2="156" stroke="#999" stroke-width="0.7" marker-end="url(#arrow)"/>
<text x="204" y="142" font-size="11" fill="#999">질의 분할</text>

<!-- Q1 -->
<rect x="16" y="160" width="348" height="98" rx="4" fill="none" stroke="#333" stroke-width="0.7"/>
<text x="32" y="186" font-size="14" font-weight="500" fill="#333">Q1  일조권 사선제한</text>
<text x="348" y="186" font-size="13" fill="#333" text-anchor="end">✓</text>
<line x1="32" y1="198" x2="348" y2="198" stroke="#ccc" stroke-width="0.5"/>
<text x="32" y="222" font-size="12" fill="#555">일반주거지역 정북방향 일조권 사선제한의</text>
<text x="32" y="240" font-size="12" fill="#555">적용 기준, 이격거리, 예외 조항 조문 검색</text>

<!-- Arrow -->
<line x1="190" y1="258" x2="190" y2="282" stroke="#ccc" stroke-width="0.5"/>

<!-- Q2 -->
<rect x="16" y="286" width="348" height="98" rx="4" fill="none" stroke="#333" stroke-width="0.7"/>
<text x="32" y="312" font-size="14" font-weight="500" fill="#333">Q2  이격거리</text>
<text x="348" y="312" font-size="13" fill="#333" text-anchor="end">✓</text>
<line x1="32" y1="324" x2="348" y2="324" stroke="#ccc" stroke-width="0.5"/>
<text x="32" y="348" font-size="12" fill="#555">인접대지경계선 이격 및 대지 안의 공지</text>
<text x="32" y="366" font-size="12" fill="#555">기준, 용도지역별 적용 수치 조문 검색</text>

<!-- Arrow -->
<line x1="190" y1="384" x2="190" y2="408" stroke="#ccc" stroke-width="0.5"/>

<!-- Q3 -->
<rect x="16" y="412" width="348" height="98" rx="4" fill="none" stroke="#333" stroke-width="0.7"/>
<text x="32" y="438" font-size="14" font-weight="500" fill="#333">Q3  높이 제한</text>
<text x="348" y="438" font-size="13" fill="#333" text-anchor="end">✓</text>
<line x1="32" y1="450" x2="348" y2="450" stroke="#ccc" stroke-width="0.5"/>
<text x="32" y="474" font-size="12" fill="#555">가로구역별 건축물 높이 제한 기준 및</text>
<text x="32" y="492" font-size="12" fill="#555">예외 조항 시행령·조례 조문 검색</text>

</svg>
